<svg width="109" height="40" viewBox="0 0 109 40" fill="none" xmlns="http://www.w3.org/2000/svg">
<path d="M56.2115 20.122C55.8282 19.6083 55.4142 19.2518 54.9695 19.0525C54.5248 18.8455 54.0265 18.742 53.4745 18.742C52.3935 18.742 51.5617 19.1292 50.979 19.9035C50.3963 20.6778 50.105 21.7818 50.105 23.2155C50.105 23.9745 50.1702 24.6262 50.3005 25.1705C50.4308 25.7072 50.6225 26.1518 50.8755 26.5045C51.1285 26.8495 51.439 27.1025 51.807 27.2635C52.175 27.4245 52.5928 27.505 53.0605 27.505C53.7352 27.505 54.3217 27.3517 54.82 27.045C55.326 26.7383 55.7898 26.3052 56.2115 25.7455V20.122ZM58.2585 12.0605V29H57.0395C56.7482 29 56.5642 28.8582 56.4875 28.5745L56.3035 27.16C55.8052 27.758 55.2378 28.241 54.6015 28.609C53.9652 28.977 53.2292 29.161 52.3935 29.161C51.7265 29.161 51.1208 29.0345 50.5765 28.7815C50.0322 28.5208 49.5683 28.1413 49.185 27.643C48.8017 27.1447 48.5065 26.5237 48.2995 25.78C48.0925 25.0363 47.989 24.1815 47.989 23.2155C47.989 22.3568 48.104 21.5595 48.334 20.8235C48.564 20.0798 48.8937 19.4358 49.323 18.8915C49.7523 18.3472 50.2775 17.9217 50.8985 17.615C51.5272 17.3007 52.2325 17.1435 53.0145 17.1435C53.7275 17.1435 54.337 17.2662 54.843 17.5115C55.3567 17.7492 55.8128 18.0827 56.2115 18.512V12.0605H58.2585ZM67.8051 23.756C66.8621 23.7867 66.0571 23.8633 65.3901 23.986C64.7308 24.101 64.1903 24.2543 63.7686 24.446C63.3546 24.6377 63.0518 24.8638 62.8601 25.1245C62.6761 25.3852 62.5841 25.6765 62.5841 25.9985C62.5841 26.3052 62.634 26.5697 62.7336 26.792C62.8333 27.0143 62.9675 27.1983 63.1361 27.344C63.3125 27.482 63.5156 27.5855 63.7456 27.6545C63.9833 27.7158 64.2363 27.7465 64.5046 27.7465C64.865 27.7465 65.1946 27.712 65.4936 27.643C65.7926 27.5663 66.0725 27.459 66.3331 27.321C66.6015 27.183 66.8545 27.0182 67.0921 26.8265C67.3375 26.6348 67.5751 26.4163 67.8051 26.171V23.756ZM61.1926 18.995C61.8366 18.374 62.5305 17.9102 63.2741 17.6035C64.0178 17.2968 64.842 17.1435 65.7466 17.1435C66.3983 17.1435 66.9771 17.2508 67.4831 17.4655C67.9891 17.6802 68.4146 17.9792 68.7596 18.3625C69.1046 18.7458 69.3653 19.2097 69.5416 19.754C69.718 20.2983 69.8061 20.8963 69.8061 21.548V29H68.8976C68.6983 29 68.545 28.9693 68.4376 28.908C68.3303 28.839 68.246 28.7087 68.1846 28.517L67.9546 27.413C67.648 27.6967 67.349 27.9497 67.0576 28.172C66.7663 28.3867 66.4596 28.5707 66.1376 28.724C65.8156 28.8697 65.4706 28.9808 65.1026 29.0575C64.7423 29.1418 64.3398 29.184 63.8951 29.184C63.4428 29.184 63.0173 29.1227 62.6186 29C62.22 28.8697 61.8711 28.678 61.5721 28.425C61.2808 28.172 61.047 27.8538 60.8706 27.4705C60.702 27.0795 60.6176 26.6195 60.6176 26.0905C60.6176 25.6305 60.7441 25.1897 60.9971 24.768C61.2501 24.3387 61.6603 23.9592 62.2276 23.6295C62.795 23.2998 63.5348 23.0315 64.4471 22.8245C65.3595 22.6098 66.4788 22.4872 67.8051 22.4565V21.548C67.8051 20.6433 67.6096 19.961 67.2186 19.501C66.8276 19.0333 66.2565 18.7995 65.5051 18.7995C64.9991 18.7995 64.5736 18.8647 64.2286 18.995C63.8913 19.1177 63.5961 19.2595 63.3431 19.4205C63.0978 19.5738 62.8831 19.7157 62.6991 19.846C62.5228 19.9687 62.3465 20.03 62.1701 20.03C62.0321 20.03 61.9133 19.9955 61.8136 19.9265C61.714 19.8498 61.6296 19.7578 61.5606 19.6505L61.1926 18.995ZM80.5142 20.122C80.1309 19.6083 79.7169 19.2518 79.2722 19.0525C78.8276 18.8455 78.3292 18.742 77.7772 18.742C76.6962 18.742 75.8644 19.1292 75.2817 19.9035C74.6991 20.6778 74.4077 21.7818 74.4077 23.2155C74.4077 23.9745 74.4729 24.6262 74.6032 25.1705C74.7336 25.7072 74.9252 26.1518 75.1782 26.5045C75.4312 26.8495 75.7417 27.1025 76.1097 27.2635C76.4777 27.4245 76.8956 27.505 77.3632 27.505C78.0379 27.505 78.6244 27.3517 79.1227 27.045C79.6287 26.7383 80.0926 26.3052 80.5142 25.7455V20.122ZM82.5612 12.0605V29H81.3422C81.0509 29 80.8669 28.8582 80.7902 28.5745L80.6062 27.16C80.1079 27.758 79.5406 28.241 78.9042 28.609C78.2679 28.977 77.5319 29.161 76.6962 29.161C76.0292 29.161 75.4236 29.0345 74.8792 28.7815C74.3349 28.5208 73.8711 28.1413 73.4877 27.643C73.1044 27.1447 72.8092 26.5237 72.6022 25.78C72.3952 25.0363 72.2917 24.1815 72.2917 23.2155C72.2917 22.3568 72.4067 21.5595 72.6367 20.8235C72.8667 20.0798 73.1964 19.4358 73.6257 18.8915C74.0551 18.3472 74.5802 17.9217 75.2012 17.615C75.8299 17.3007 76.5352 17.1435 77.3172 17.1435C78.0302 17.1435 78.6397 17.2662 79.1457 17.5115C79.6594 17.7492 80.1156 18.0827 80.5142 18.512V12.0605H82.5612ZM93.3844 20.122C93.001 19.6083 92.587 19.2518 92.1424 19.0525C91.6977 18.8455 91.1994 18.742 90.6474 18.742C89.5664 18.742 88.7345 19.1292 88.1519 19.9035C87.5692 20.6778 87.2779 21.7818 87.2779 23.2155C87.2779 23.9745 87.343 24.6262 87.4734 25.1705C87.6037 25.7072 87.7954 26.1518 88.0484 26.5045C88.3014 26.8495 88.6119 27.1025 88.9799 27.2635C89.3479 27.4245 89.7657 27.505 90.2334 27.505C90.908 27.505 91.4945 27.3517 91.9929 27.045C92.4989 26.7383 92.9627 26.3052 93.3844 25.7455V20.122ZM95.4314 12.0605V29H94.2124C93.921 29 93.737 28.8582 93.6604 28.5745L93.4764 27.16C92.978 27.758 92.4107 28.241 91.7744 28.609C91.138 28.977 90.402 29.161 89.5664 29.161C88.8994 29.161 88.2937 29.0345 87.7494 28.7815C87.205 28.5208 86.7412 28.1413 86.3579 27.643C85.9745 27.1447 85.6794 26.5237 85.4724 25.78C85.2654 25.0363 85.1619 24.1815 85.1619 23.2155C85.1619 22.3568 85.2769 21.5595 85.5069 20.8235C85.7369 20.0798 86.0665 19.4358 86.4959 18.8915C86.9252 18.3472 87.4504 17.9217 88.0714 17.615C88.7 17.3007 89.4054 17.1435 90.1874 17.1435C90.9004 17.1435 91.5099 17.2662 92.0159 17.5115C92.5295 17.7492 92.9857 18.0827 93.3844 18.512V12.0605H95.4314ZM108.715 17.3505L102.218 32.4385C102.149 32.5918 102.061 32.7145 101.953 32.8065C101.854 32.8985 101.697 32.9445 101.482 32.9445H99.964L102.091 28.3215L97.2845 17.3505H99.0555C99.2318 17.3505 99.3698 17.3965 99.4695 17.4885C99.5768 17.5728 99.6496 17.6687 99.688 17.776L102.804 25.113C102.927 25.435 103.031 25.7723 103.115 26.125C103.222 25.7647 103.337 25.4235 103.46 25.1015L106.484 17.776C106.53 17.6533 106.607 17.5537 106.714 17.477C106.829 17.3927 106.956 17.3505 107.094 17.3505H108.715Z" fill="white"/>
<g clip-path="url(#clip0_189_833)">
<path d="M20 40C31.0457 40 40 31.0457 40 20C40 8.9543 31.0457 0 20 0C8.9543 0 0 8.9543 0 20C0 31.0457 8.9543 40 20 40Z" fill="white"/>
<mask id="mask0_189_833" style="mask-type:luminance" maskUnits="userSpaceOnUse" x="0" y="0" width="40" height="40">
<path d="M20 40C31.0457 40 40 31.0457 40 20C40 8.9543 31.0457 0 20 0C8.9543 0 0 8.9543 0 20C0 31.0457 8.9543 40 20 40Z" fill="white"/>
</mask>
<g mask="url(#mask0_189_833)">
<path d="M15.675 26.65C16.3417 26.65 16.9334 26.5417 17.4584 26.3167C17.9834 26.1 18.425 25.7833 18.7834 25.3667C19.1417 24.95 19.425 24.4583 19.6084 23.8667C19.8 23.275 19.8917 22.6 19.8917 21.85V9.19168H24.85V21.85C24.85 23.1583 24.6417 24.3667 24.2167 25.4583C23.7917 26.55 23.1834 27.5 22.3917 28.2917C21.6 29.0833 20.6334 29.7 19.5 30.1417C18.3667 30.5833 17.0917 30.8 15.675 30.8C14.2584 30.8 12.9667 30.5833 11.8334 30.1417C10.7 29.7 9.73337 29.0833 8.9417 28.2917C8.15003 27.5 7.5417 26.5583 7.12503 25.4583C6.70837 24.3667 6.4917 23.1583 6.4917 21.85V4.90001L11.45 1.56668V21.8333C11.45 22.5833 11.5417 23.2583 11.7334 23.85C11.925 24.4417 12.2 24.9417 12.5584 25.3583C12.9167 25.775 13.3667 26.0917 13.8834 26.3083C14.4084 26.525 15 26.6417 15.6667 26.6417L15.675 26.65Z" fill="#1889AF"/>
<path d="M33.5166 30.5917H28.5166V15.05H33.5166V30.5917Z" fill="#1889AF"/>
<path d="M31.0166 14.2C32.3973 14.2 33.5166 13.0807 33.5166 11.7C33.5166 10.3193 32.3973 9.20001 31.0166 9.20001C29.6359 9.20001 28.5166 10.3193 28.5166 11.7C28.5166 13.0807 29.6359 14.2 31.0166 14.2Z" fill="#FF4D00"/>
</g>
</g>
<defs>
<clipPath id="clip0_189_833">
<rect width="40" height="40" fill="white"/>
</clipPath>
</defs>
</svg>
